<?xml version="1.0" encoding="UTF-8"?>
<svg viewBox="0 0 300 175" xmlns="http://www.w3.org/2000/svg" xmlns:xlink="http://www.w3.org/1999/xlink">
 <defs>
  <linearGradient id="a">
   <stop stop-color="#fff" offset="0"/>
   <stop stop-color="#fff" stop-opacity="0" offset="1"/>
  </linearGradient>
  <linearGradient id="c" x2="0" y1="1041.1" y2="889.28" gradientUnits="userSpaceOnUse" xlink:href="#a"/>
  <linearGradient id="b" x2="0" y1="928.23" y2="1057.1" gradientUnits="userSpaceOnUse" xlink:href="#a"/>
 </defs>
 <g transform="translate(0 -877.36)">
  <path d="m13.384 879.49h274.11a11.924 11.924 0 0 1 11.924 11.924v147.82a11.924 11.924 0 0 1 -11.924 11.924h-274.11a11.924 11.924 0 0 1 -11.924 -11.924v-147.82a11.924 11.924 0 0 1 11.924 -11.924" fill="#59f" stroke="#000" stroke-opacity=".63889" stroke-width="1.1321"/>
  <g fill="#fff" font-family="Xirod" font-size="107.44">
   <path d="m204.48 930.8-56.299 87.996-56.302-87.996h23.316l28.366 47.596c0.85901 1.434 1.6826 2.903 2.4706 4.4068s1.4683 3.0439 2.0411 4.62c1.3596-3.08 2.8996-6.0528 4.62-8.9186l28.471-47.705z"/>
  </g>
  <g transform="scale(.9962 1.0038)" fill="#fff" font-family="Bitstream Vera Sans" font-size="11.789">
   <path d="m220.9414,887.20342c0-1.40071.37609-2.4973 1.12825-3.28977s1.72308-1.18868 2.91273-1.18869c.77903,1e-005 1.4813.18613 2.10684.55837s1.10234.89128 1.43046,1.5571 .49216,1.42087.49217,2.26513c-1e-005,.85579-.1727,1.62139-.51808,2.2968s-.83468,1.18677-1.46787,1.53407-1.3163.52096-2.04927.52096c-.79439,0-1.50434-.19188-2.12987-.57564s-1.09947-.90759-1.42182-1.57149-.48354-1.36618-.48354-2.10684zm1.15128.0173c0,1.01696.27342,1.81806.82028,2.40329s1.23282.87785 2.05791.87785c.84042,0 1.53215-.2955 2.07517-.88649s.81452-1.42949.81453-2.51553c-1e-005-.68693-.11609-1.28655-.34826-1.79887s-.57181-.9095-1.01888-1.19157-.94885-.42309-1.50529-.4231c-.79055,1e-005-1.47076.27152-2.04064.81453s-.85482,1.44965-.85482,2.71989z"/>
   <path d="m236.46636,888.3547 1.11674.28206c-.2341.91718-.65528,1.61658-1.26353,2.0982s-1.35179.72243-2.2306.72243c-.90951,0-1.6492-.18517-2.21908-.55549s-1.00353-.90663-1.30094-1.60891-.44612-1.45636-.44612-2.26226c0-.8788.16789-1.64536.50368-2.29967s.81357-1.15127 1.43334-1.49091 1.3019-.50943 2.04639-.50944c.84427,1e-005 1.55422.21492 2.12986.64472s.97666,1.03424 1.20309,1.81326l-1.09947.25904c-.19572-.61401-.47971-1.06109-.85195-1.34124s-.84043-.42021-1.40455-.42022c-.64856,1e-005-1.19062.15543-1.62618.46627s-.74162.72819-.91814,1.25201-.2648,1.06398-.2648,1.62042c0,.71764.10458,1.34412.31373,1.87946s.53438.93541.9757,1.20021 .9191.39719 1.43334.39719c.62552,0 1.15511-.18037 1.58876-.5411s.72722-.89608.88073-1.60603z"/>
   <path d="m238.43 888.78v-1.0419h3.1833v1.0419z"/>
   <path d="m242.85594,891.31348v-8.43886h3.16601c.64471,1e-005 1.16183.0854 1.55135.25616s.69459.43366.91526.78863 .33098.72627.33099,1.11386c-1e-005,.36074-.0979.70036-.29357,1.01888s-.49122.57564-.88649.77135c.5104.14967.90279.40487 1.17718.7656s.41158.78671.41158,1.27792c0,.39527-.0835.76272-.2504,1.10234s-.37321.60154-.61881.78575-.55358.32331-.9239.41734-.82412.14103-1.36138.14103zm1.11674-4.89293h1.82477c.49505,1e-005 .85002-.0326 1.06493-.0978 .28398-.0844.49792-.2245.64184-.42022s.21586-.44132.21586-.73682c0-.28013-.0672-.5267-.20147-.73969s-.3262-.35881-.57564-.43749-.67734-.118-1.28367-.118h-1.68662zm0,3.89707h2.10108c.36073,0 .61401-.0134.75984-.0403 .25711-.0461.47202-.1228.64472-.23026s.31467-.26383.42597-.46914 .16693-.44228.16693-.71091c0-.31468-.0806-.58811-.24177-.82029s-.38472-.39527-.67061-.48929-.69749-.14103-1.23475-.14103h-1.95141z"/>
   <path d="m254.63349,890.55939c-.38376.3262-.75313.55645-1.1081.69077s-.73586.20147-1.14264.20147c-.67158,0-1.18773-.16406-1.54847-.49217s-.5411-.74737-.5411-1.25777c0-.29933.0681-.57276.20436-.82028s.31468-.44612.53534-.59579 .46914-.26287.74545-.33963c.20339-.0537.5104-.10553.92102-.15542 .83659-.0998 1.45252-.21874 1.8478-.35689 .004-.14199.006-.23217.006-.27055-1e-005-.42213-.0979-.71955-.29358-.89224-.2648-.23409-.65815-.35114-1.18006-.35114-.48737,0-.84715.0854-1.07932.25616s-.40391.47298-.51519.90663l-1.01313-.13816c.0921-.43364.24369-.78382.45476-1.05054s.51615-.47201.91526-.61593 .86154-.21586 1.38729-.21586c.52191,0 .94596.0614 1.27216.1842s.56604.27727.71955.46339 .26095.42118.32235.70516c.0345.17653.0518.49505.0518.95556v1.38153c-1e-005,.96323.0221,1.57245.0662,1.82765s.13143.49984.26191.73394h-1.0822c-.10745-.21491-.17653-.46627-.20723-.75409zm-.0863-2.31406c-.37609.1535-.94021.28398-1.69238.39143-.42597.0614-.72722.13048-.90375.20723s-.31276.189-.4087.33675-.14391.3118-.14391.49217c0,.27631.10457.50656.31372.69076s.5152.27631.91814.27631 .75409-.0873 1.06494-.26192 .53917-.41349.685-.71666c.11129-.2341.16693-.57948.16694-1.03615z"/>
   <path d="m257.2066,891.31348v-6.11328h.93253v.86921c.449-.67157 1.09755-1.00736 1.94566-1.00736 .3684,0 .70707.0662 1.016.19859s.54013.30606.69364.52096 .26095.4701.32236.76559c.0384.19189.0576.52768.0576,1.00737v3.75892h-1.03615v-3.71862c0-.42214-.0403-.73778-.12088-.94693s-.22354-.37608-.42885-.5008-.44612-.18708-.72243-.18709c-.44132,1e-005-.8222.14008-1.14264.42022s-.48066.81165-.48065,1.59452v3.3387z"/>
   <path d="m263.77 891.31v-8.4389h1.0362v4.8123l2.4522-2.4868h1.3412l-2.3371 2.268 2.5731 3.8453h-1.2779l-2.0205-3.1257-0.73106 0.70228v2.4234z"/>
   <path d="m275.81697,888.3547 1.11674.28206c-.2341.91718-.65527,1.61658-1.26352,2.0982s-1.3518.72243-2.2306.72243c-.90951,0-1.64921-.18517-2.21909-.55549s-1.00353-.90663-1.30094-1.60891-.44612-1.45636-.44612-2.26226c0-.8788.1679-1.64536.50369-2.29967s.81356-1.15127 1.43333-1.49091 1.3019-.50943 2.0464-.50944c.84426,1e-005 1.55421.21492 2.12986.64472s.97666,1.03424 1.20308,1.81326l-1.09947.25904c-.19572-.61401-.4797-1.06109-.85194-1.34124s-.84044-.42021-1.40456-.42022c-.64855,1e-005-1.19061.15543-1.62618.46627s-.74161.72819-.91814,1.25201-.26479,1.06398-.26479,1.62042c0,.71764.10457,1.34412.31372,1.87946s.53438.93541.97571,1.20021 .9191.39719 1.43334.39719c.62552,0 1.1551-.18037 1.58876-.5411s.72721-.89608.88072-1.60603z"/>
   <path d="m282.17202,890.55939c-.38377.3262-.75313.55645-1.10811.69077s-.73586.20147-1.14264.20147c-.67158,0-1.18773-.16406-1.54846-.49217s-.5411-.74737-.5411-1.25777c0-.29933.0681-.57276.20435-.82028s.31468-.44612.53534-.59579 .46915-.26287.74545-.33963c.20339-.0537.5104-.10553.92102-.15542 .83659-.0998 1.45253-.21874 1.8478-.35689 .004-.14199.006-.23217.006-.27055-1e-005-.42213-.0979-.71955-.29358-.89224-.26479-.23409-.65815-.35114-1.18005-.35114-.48738,0-.84715.0854-1.07933.25616s-.4039.47298-.51519.90663l-1.01313-.13816c.0921-.43364.24369-.78382.45476-1.05054s.51615-.47201.91526-.61593 .86154-.21586 1.38729-.21586c.52191,0 .94596.0614 1.27216.1842s.56604.27727.71955.46339 .26095.42118.32236.70516c.0345.17653.0518.49505.0518.95556v1.38153c0,.96323.0221,1.57245.0662,1.82765s.13143.49984.26192.73394h-1.0822c-.10746-.21491-.17654-.46627-.20723-.75409zm-.0863-2.31406c-.37609.1535-.94021.28398-1.69237.39143-.42598.0614-.72723.13048-.90376.20723s-.31276.189-.4087.33675-.14391.3118-.14391.49217c0,.27631.10457.50656.31372.69076s.5152.27631.91815.27631 .75408-.0873 1.06493-.26192 .53917-.41349.68501-.71666c.11128-.2341.16693-.57948.16693-1.03615z"/>
   <path d="m284.7336,891.31348v-6.11328h.93254v.92678c.23793-.43364.45763-.71954.6591-.8577s.42309-.20723.66487-.20723c.34921,0 .70419.11129 1.06493.33387l-.3569.96131c-.25328-.14966-.50656-.22449-.75984-.2245-.22642,1e-005-.42981.0681-.61018.20436s-.30893.32524-.38568.567c-.11512.36841-.17269.77136-.17269,1.20884v3.20055z"/>
   <path d="m292.64863,891.31348v-.77136c-.3876.60634-.95748.90951-1.70965.90951-.48737,0-.93541-.13432-1.34411-.40295s-.7253-.64375-.9498-1.12537-.33675-1.03519-.33675-1.66071c0-.61018.10169-1.16375.30509-1.66072s.50848-.87784.91526-1.14264 .86154-.39719 1.36426-.39719c.36841,0 .69652.0777.98434.23313s.52191.35786.70228.6073v-3.02786h1.0304v8.43886zm-3.27538-3.05088c0,.78287.16501,1.3681.49505,1.75569s.71954.5814 1.16854.5814 .83755-.18517 1.15416-.5555 .47489-.9354.4749-1.69525c-1e-005-.83659-.16118-1.4506-.48354-1.84204s-.71955-.58715-1.19157-.58715c-.46051,0-.84523.18805-1.15415.56412s-.46339.969-.46339,1.77873z"/>
  </g>
  <path d="m13.884 880.05c-6.6464 0-11.954 5.2749-11.954 11.881v37.062h211.79l0.23056-48.943h-200.07z" fill="#fff"/>
  <path d="m10.522 888.25h50.385v23.011h-50.385z" fill="#0055d4"/>
  <path d="m10.522 913.31h50.385v5.9649h-50.385z" fill="#ff9218"/>
  <g transform="scale(.9962 1.0038)" font-family="Bitstream Vera Sans" font-size="11.03">
   <path d="m64.961 888.9c0-1.3105 0.35186-2.3364 1.0556-3.0779s1.6121-1.1121 2.7251-1.1121c0.72885 1e-5 1.3859 0.17415 1.9711 0.52241s1.0313 0.83388 1.3383 1.4568 0.46046 1.3294 0.46047 2.1192c-8e-6 0.80067-0.16158 1.517-0.48471 2.1489s-0.78092 1.1103-1.3733 1.4353-1.2315 0.4874-1.9173 0.4874c-0.74322 0-1.4074-0.17952-1.9927-0.53856s-1.0286-0.84913-1.3302-1.4703-0.45239-1.2782-0.45239-1.9711zm1.0771 0.0162c-2e-6 0.95146 0.25581 1.701 0.76745 2.2485s1.1534 0.82131 1.9254 0.82131c0.78629 0 1.4335-0.27646 1.9415-0.82939s0.76206-1.3374 0.76206-2.3535c-7e-6 -0.64268-0.10862-1.2037-0.32583-1.683s-0.53498-0.85092-0.95325-1.1148-0.88773-0.39583-1.4083-0.39584c-0.73963 1e-5 -1.376 0.25403-1.9092 0.76206s-0.79976 1.3563-0.79976 2.5447z"/>
   <path d="m73.72875,894.93297v-7.91146h.88324v.74321c.20824-.29082.44341-.50893.70552-.65435s.57985-.21811.95325-.21812c.48829,1e-005 .91914.12567 1.29255.37699s.65524.60589.84554,1.06366 .28543.95954.28544,1.50528c-6e-006,.58524-.10502,1.11213-.31506,1.58068s-.51523.82759-.91555,1.07712-.82131.3743-1.26293.3743c-.32314,0-.61306-.0682-.86978-.20465s-.46765-.30878-.63281-.51702v2.78436zm.87786-5.01939c-2e-006,.73604.149,1.27998.447,1.63184s.65884.52779 1.08251.52779c.43084,0 .79976-.18221 1.10674-.54664s.46047-.92901.46047-1.69377c-5e-006-.72885-.1499-1.27459-.4497-1.63723s-.65795-.54394-1.07443-.54395c-.4129,1e-005-.77822.19299-1.09597.57896s-.47663.94697-.47663,1.683z"/>
   <path d="m83.78369,890.89915 1.00172.12387c-.15798.58524-.4506,1.03942-.87786,1.36256s-.973.4847-1.63723.4847c-.83657,0-1.4999-.25761-1.98998-.77283s-.73514-1.23779-.73514-2.16771c-1e-006-.96223.24774-1.70903.74321-2.24042s1.13816-.79706 1.92805-.79707c.76475,1e-005 1.38948.26031 1.87419.78092s.72705,1.25305.72706,2.19733c-6e-006,.0575-.0018.14362-.0054.25851h-4.26541c.0359.62832.21363,1.10943.53317,1.44334s.71808.50086 1.19561.50086c.35545,0 .65884-.0933.91017-.28005s.45059-.4847.5978-.89401zm-3.1829-1.56722h3.19367c-.04309-.48111-.16516-.84194-.36622-1.0825-.30878-.3734-.70911-.5601-1.20099-.56011-.44521,1e-005-.81951.14901-1.1229.44701s-.47124.69654-.50355,1.1956z"/>
   <path d="m86.00795,892.74103v-5.71952h.87247v.81322c.42007-.62831 1.02685-.94247 1.82034-.94248 .34468,1e-005 .66153.0619.95056.18581s.50535.28634.64897.48739 .24414.43983.30159.71629c.0359.17952.05385.49369.05386.94248v3.51681h-.96941v-3.47911c-4e-006-.39494-.0377-.69025-.1131-.88593s-.20915-.35186-.40123-.46855-.41739-.17503-.67589-.17503c-.4129,0-.76925.13105-1.06905.39315s-.4497.75937-.4497,1.49181v3.12366z"/>
   <path d="m100.9638,889.97282 1.0448.2639c-.21902.85811-.61307,1.51246-1.18214,1.96305s-1.26473.6759-2.08692.6759c-.85093,0-1.54298-.17324-2.07615-.51971s-.93889-.84824-1.21715-1.50528-.41739-1.36256-.41739-2.11655c-1e-006-.8222.15708-1.53938.47124-2.15155s.76116-1.07712 1.34102-1.39487 1.21804-.47662 1.91459-.47663c.78988,1e-005 1.45411.20107 1.99268.60319s.91375.96762 1.12559,1.69647l-1.02865.24235c-.18312-.57446-.44881-.99274-.79707-1.25485s-.7863-.39314-1.31409-.39315c-.60678,1e-005-1.11393.14542-1.52144.43624s-.69385.68128-.85901,1.17137-.24774.99544-.24774,1.51605c-1e-006,.67141.09784,1.25754.29352,1.7584s.49996.87516.91286,1.1229 .8599.37161 1.34102.37161c.58523,0 1.08071-.16875 1.48643-.50625s.68037-.83836.824-1.50259z"/>
   <path d="m103.16 892.74v-7.8953h0.96941v7.8953z"/>
   <path d="m105.64 885.96v-1.1148h0.96941v1.1148zm0 6.7805v-5.7195h0.96941v5.7195z"/>
   <path d="m108.08896,894.93297v-7.91146h.88324v.74321c.20824-.29082.44342-.50893.70552-.65435s.57985-.21811.95325-.21812c.48829,1e-005 .91914.12567 1.29255.37699s.65524.60589.84554,1.06366 .28543.95954.28544,1.50528c-1e-005,.58524-.10503,1.11213-.31506,1.58068s-.51523.82759-.91556,1.07712-.82131.3743-1.26292.3743c-.32314,0-.61307-.0682-.86978-.20465s-.46765-.30878-.63281-.51702v2.78436zm.87786-5.01939c0,.73604.149,1.27998.447,1.63184s.65884.52779 1.08251.52779c.43085,0 .79976-.18221 1.10674-.54664s.46047-.92901.46047-1.69377c0-.72885-.1499-1.27459-.44969-1.63723s-.65795-.54394-1.07443-.54395c-.4129,1e-005-.77823.19299-1.09598.57896s-.47662.94697-.47662,1.683z"/>
   <path d="m117.96079,892.03551c-.35904.30519-.70462.52061-1.03673.64628s-.68846.18849-1.06904.18849c-.62833,0-1.11124-.15349-1.44873-.46047s-.50625-.69923-.50625-1.17675c0-.28005.0637-.53587.19119-.76745s.29441-.41739.50086-.55741 .43893-.24594.69744-.31776c.19029-.0503.47752-.0987.86169-.14541 .78271-.0933 1.35897-.20465 1.72879-.33391 .004-.13284.005-.21721.005-.25312 0-.39494-.0916-.6732-.27466-.83477-.24775-.21901-.61576-.32852-1.10405-.32852-.45599,0-.79259.0799-1.00981.23966s-.37789.44252-.48201.84823l-.94787-.12925c.0862-.40571.22799-.73334.42547-.98288s.4829-.44161.85631-.57626 .80604-.20195 1.29793-.20196 .88503.0575 1.19022.17234 .52958.25941.6732.43354 .24415.39406.3016.65974c.0323.16516.0485.46317.0485.89401v1.29255c-1e-005,.90119.0206,1.47117.0619,1.70993s.12297.46765.24505.68667h-1.0125c-.10053-.20106-.16516-.43624-.19388-.70552zm-.0808-2.16501c-.35187.14362-.87966.26569-1.58337.36622-.39854.0575-.68039.12207-.84555.19388s-.29262.17683-.38237.31506-.13465.29172-.13464.46047c-1e-005,.25851.0978.47393.29351.64627s.48201.25851.85901.25851c.3734,0 .70551-.0817.99634-.24504s.50444-.38687.64088-.67051c.10412-.21902.15618-.54215.15619-.96941z"/>
   <path d="m120.35739,892.74103v-5.71952h.87247v.86708c.2226-.40571.42815-.6732.61665-.80246s.39584-.19387.62204-.19388c.32672,1e-005 .65884.10413.99634.31237l-.33391.89939c-.23697-.14002-.47394-.21003-.7109-.21003-.21184,0-.40213.0637-.57088.19119s-.28903.30429-.36083.53048c-.10772.34468-.16157.72167-.16157,1.13098v2.9944z"/>
   <path d="m126.16846,891.87394 .14003.85632c-.27287.0574-.51702.0862-.73244.0862-.35187,0-.62474-.0557-.81862-.16696s-.33032-.25761-.4093-.43893-.11849-.56279-.11849-1.14444v-3.29061h-.7109v-.75398h.7109v-1.41642l.96403-.58165v1.99807h.97479v.75398h-.97479v3.34447c0,.27646.017.45419.0512.53317s.0898.14183.16695.1885 .1876.07.33122.07c.10771,0 .24953-.0126.42546-.0377z"/>
   <path d="m130.25076,892.74103v-7.89531h2.96209c.60318,1e-005 1.08699.0799 1.45142.23966s.64986.40572.85631.73783 .30967.67949.30967,1.04211c0,.33751-.0916.65526-.27466.95326s-.45958.53856-.82939.72167c.47752.14003.84464.37879 1.10136.71629s.38507.73603.38507,1.1956c0,.36982-.0781.7136-.23427,1.03135s-.34918.56279-.57896.73513-.51792.3025-.86439.39046-.77104.13195-1.27369.13195zm1.04481-4.57777h1.70724c.46316,0 .79527-.0305.99634-.0916 .26568-.079.46585-.21003.60049-.39315s.20196-.41289.20196-.68936c0-.26209-.0628-.49277-.18849-.69205s-.30519-.33569-.53857-.4093-.63371-.1104-1.20099-.11041h-1.57798zm0,3.64606h1.96575c.33749,0 .57446-.0126.7109-.0377 .24055-.0431.44161-.11489.60319-.21543s.2944-.24684.39853-.43892 .15618-.4138.15618-.66513c0-.29441-.0754-.55023-.22619-.76745s-.35995-.36981-.62743-.45777-.65256-.13195-1.15521-.13195h-1.82572z"/>
   <path d="m141.26972,892.03551c-.35904.30519-.70462.52061-1.03673.64628s-.68846.18849-1.06904.18849c-.62833,0-1.11124-.15349-1.44873-.46047s-.50625-.69923-.50625-1.17675c0-.28005.0637-.53587.19119-.76745s.29441-.41739.50086-.55741 .43893-.24594.69744-.31776c.19029-.0503.47752-.0987.86169-.14541 .78271-.0933 1.35897-.20465 1.72879-.33391 .004-.13284.005-.21721.005-.25312 0-.39494-.0916-.6732-.27466-.83477-.24775-.21901-.61576-.32852-1.10406-.32852-.45598,0-.79258.0799-1.0098.23966s-.37789.44252-.48201.84823l-.94787-.12925c.0862-.40571.22799-.73334.42547-.98288s.4829-.44161.85631-.57626 .80604-.20195 1.29793-.20196 .88503.0575 1.19022.17234 .52958.25941.6732.43354 .24415.39406.3016.65974c.0323.16516.0485.46317.0485.89401v1.29255c-1e-005,.90119.0206,1.47117.0619,1.70993s.12297.46765.24505.68667h-1.0125c-.10053-.20106-.16516-.43624-.19388-.70552zm-.0808-2.16501c-.35187.14362-.87966.26569-1.58337.36622-.39854.0575-.68039.12207-.84555.19388s-.29262.17683-.38237.31506-.13465.29172-.13464.46047c-1e-005,.25851.0978.47393.29351.64627s.48201.25851.85901.25851c.3734,0 .70551-.0817.99634-.24504s.50444-.38687.64088-.67051c.10412-.21902.15618-.54215.15619-.96941z"/>
   <path d="m143.67709,892.74103v-5.71952h.87247v.81322c.42008-.62831 1.02686-.94247 1.82034-.94248 .34467,1e-005 .66153.0619.95056.18581s.50535.28634.64897.48739 .24414.43983.30159.71629c.0359.17952.0539.49369.0539.94248v3.51681h-.96941v-3.47911c-1e-005-.39494-.0377-.69025-.1131-.88593s-.20915-.35186-.40123-.46855-.41739-.17503-.67589-.17503c-.4129,0-.76925.13105-1.06905.39315s-.4497.75937-.4497,1.49181v3.12366z"/>
   <path d="m149.82 892.74v-7.8953h0.96941v4.5024l2.2943-2.3266h1.2548l-2.1866 2.1219 2.4074 3.5976h-1.1956l-1.8904-2.9244-0.68398 0.65704v2.2674z"/>
  </g>
  <g transform="scale(.9962 1.0038)" font-family="Bitstream Vera Sans" font-size="11.03">
   <path d="m65.27872,903.54724v-7.89531h2.97824c.5242,1e-005 .92453.0251 1.20099.0754 .38776.0646.71269.18761.9748.36892s.47303.43534.63281.76206 .23965.68577.23966,1.07712c-7e-006,.67141-.21364,1.2396-.64089,1.70455s-1.1992.69744-2.31581.69744h-2.02499v3.20982zm1.04481-4.14154h2.04115c.67499,1e-005 1.15431-.12566 1.43796-.37699s.42546-.60498.42546-1.06096c-6e-006-.33032-.08348-.61306-.25043-.84824s-.38687-.39045-.65974-.46585c-.17594-.0467-.50087-.07-.9748-.07h-2.0196z"/>
   <path d="m76.27076,903.54724v-.84015c-.44522.64627-1.0502.96941-1.81495.96941-.3375,0-.65256-.0646-.94517-.19389s-.50984-.29172-.65166-.48739-.24146-.43534-.2989-.71898c-.03949-.19029-.05924-.49189-.05924-.90479v-3.54373h.96941v3.17213c-2e-006,.50625.01975.84733.05924,1.02326 .06104.25492.19029.45509.38776.6005s.44162.21812.73244.21812 .56369-.0745.81861-.22351 .43533-.35186.54126-.60857 .15887-.62922.15887-1.11752v-3.06441h.96941v5.71952z"/>
   <path d="m79.55598,903.54724h-.8994v-7.89531h.96941v2.81668c.4093-.51342.93171-.77014 1.56721-.77014 .35186,0 .68487.0709.99903.21273s.57266.34109.77553.5978 .36173.56639.47663.92902 .17233.7504.17234,1.16329c-5e-006,.98018-.24236,1.73776-.72706,2.27273s-1.06636.80246-1.74494.80246-1.20458-.28185-1.58876-.84555zm-.01077-2.90284c-2e-006,.68577.09335,1.18124.28005,1.48642 .30518.49907.71808.74861 1.23869.74861 .42367,0 .78989-.18401 1.09867-.55203s.46316-.91645.46316-1.6453c-5e-006-.74681-.14811-1.29793-.44431-1.65339s-.65436-.53317-1.07443-.53317-.78989.18401-1.09867.55202-.46316.9003-.46316,1.59684z"/>
   <path d="m84.78 903.55v-7.8953h0.96941v7.8953z"/>
   <path d="m87.263 896.77v-1.1148h0.96941v1.1148zm0 6.7805v-5.7195h0.96941v5.7195z"/>
   <path d="m93.44548,901.45224 .95325.12387c-.10413.65704-.37072,1.17137-.79976,1.54297s-.95595.55742-1.58068.55742c-.78271,0-1.41193-.25582-1.88766-.76745s-.71359-1.24498-.71359-2.20003c-1e-006-.61754.10233-1.1579.30698-1.62107s.51612-.81053.9344-1.04211 .87336-.34737 1.36525-.34737c.62114,0 1.12918.15708 1.52413.47124s.64806.76027.75937,1.33832l-.94248.14541c-.08976-.38417-.24864-.67319-.47663-.86708s-.50356-.29082-.82669-.29082c-.4883,0-.88504.17503-1.19022.52509s-.45778.90389-.45778,1.66147c-1e-006,.76834.14721,1.32665.44162,1.67492s.67858.52241 1.15252.52241c.38058,0 .69833-.11669.95325-.35007s.41648-.59242.48471-1.07712z"/>
   <path d="m98.41102,903.54724v-7.89531h2.71973c.61396,1e-005 1.0825.0377 1.40565.1131 .45238.10413.83835.29263 1.1579.56549 .41648.35187.72795.80156.93441,1.3491s.30966,1.17317.30967,1.87688c-1e-005,.5996-.07,1.13098-.21004,1.59414s-.31955.84644-.53856,1.14983-.45868.54215-.71898.71629-.57447.30608-.94248.39584-.79079.13464-1.26831.13464zm1.04481-.93171h1.68569c.52061,0 .92902-.0485 1.22523-.14541s.53227-.23338.70821-.40931c.24773-.24773.44071-.58074.57895-.99903s.20734-.92542.20735-1.52143c-1e-005-.82579-.13555-1.4604-.40662-1.90382s-.6005-.74051-.98826-.89132c-.28005-.1077-.73065-.16156-1.35179-.16157h-1.65877z"/>
   <path d="m105.89702,900.68748c0-1.05917.29441-1.84367.88324-2.35351 .49188-.42366 1.09148-.6355 1.79879-.6355 .7863,0 1.42898.25761 1.92805.77283s.7486,1.22703.7486,2.1354c0,.73603-.11041,1.31499-.33121,1.73686s-.54216.74949-.96403.98287-.88234.35007-1.38141.35007c-.80066,0-1.44783-.25672-1.94151-.77015s-.74052-1.25305-.74052-2.21887zm.99634,0c-1e-005,.73245.15977,1.28088.47932,1.64531s.72167.54664 1.20637.54664 .88144-.18311 1.20099-.54934 .47932-.92453.47932-1.67492c0-.70731-.16067-1.24318-.48201-1.60761s-.72078-.54663-1.1983-.54664-.88683.18132-1.20637.54395-.47933.91017-.47932,1.64261z"/>
   <path d="m112.39745,903.54724v-5.71952h.86709v.80246c.17952-.28005.41828-.50535.71628-.6759s.6373-.25581 1.01788-.25581c.42367,0 .77104.088 1.04212.26389s.46226.42188.57357.73783c.45238-.66781 1.04121-1.00172 1.76648-1.00172 .56728,0 1.00351.15708 1.3087.47124s.45777.79797.45778,1.45142v3.92611h-.96402v-3.60297c-1e-005-.38776-.0314-.66692-.0943-.83747s-.17684-.30787-.34199-.412-.35905-.15617-.58165-.15618c-.40213,1e-005-.73604.13375-1.00172.40123s-.39854.69564-.39854,1.28447v3.32292h-.96941v-3.71607c0-.43085-.079-.75398-.23696-.96941s-.41649-.32313-.77553-.32314c-.27287,1e-005-.5251.0718-.75668.21543s-.39943.35366-.50355.63011-.15619.675-.15619,1.19561v2.96747z"/>
   <path d="m125.32831,902.84173c-.35904.30518-.70462.52061-1.03673.64627s-.68846.1885-1.06904.1885c-.62833,0-1.11124-.15349-1.44873-.46047s-.50625-.69924-.50625-1.17676c0-.28005.0637-.53587.19119-.76745s.29441-.41738.50086-.55741 .43892-.24594.69744-.31775c.19029-.0503.47752-.0987.86169-.14541 .78271-.0933 1.35897-.20465 1.72879-.33391 .004-.13284.005-.21722.005-.25313 0-.39494-.0916-.67319-.27466-.83477-.24775-.21901-.61576-.32851-1.10406-.32852-.45598,1e-005-.79258.0799-1.0098.23966s-.37789.44252-.48201.84824l-.94787-.12926c.0862-.40571.22799-.73334.42547-.98287s.4829-.44162.85631-.57626 .80604-.20196 1.29793-.20196 .88503.0574 1.19022.17234 .52958.25941.6732.43354 .24415.39405.3016.65973c.0323.16517.0485.46317.0485.89402v1.29254c-1e-005,.9012.0206,1.47117.0619,1.70994s.12297.46765.24505.68666h-1.0125c-.10053-.20106-.16516-.43623-.19388-.70551zm-.0808-2.16502c-.35187.14362-.87966.26569-1.58337.36622-.39854.0575-.68039.12208-.84555.19388s-.29262.17683-.38237.31506-.13465.29172-.13464.46047c-1e-005,.25851.0978.47394.29351.64628s.48201.25851.85901.2585c.3734,1e-005 .70551-.0817.99634-.24504s.50444-.38687.64088-.67051c.10412-.21901.15618-.54215.15619-.96941z"/>
   <path d="m127.74 896.77v-1.1148h0.96941v1.1148zm0 6.7805v-5.7195h0.96941v5.7195z"/>
   <path d="m130.19152,903.54724v-5.71952h.87247v.81323c.42008-.62832 1.02685-.94248 1.82034-.94248 .34467,0 .66153.0619.95056.1858s.50534.28634.64896.4874 .24415.43983.3016.71628c.0359.17953.0539.49369.0539.94249v3.5168h-.96941v-3.4791c0-.39495-.0377-.69026-.11309-.88594s-.20915-.35185-.40123-.46855-.41739-.17502-.6759-.17503c-.4129,1e-005-.76924.13106-1.06904.39315s-.4497.75938-.4497,1.49182v3.12365z"/>
  </g>
  <path d="m1.9413 928.23v116.74h214.79v-33.059h-135.85v-83.68h-78.939z" fill="url(#b)"/>
  <path d="m213.51 928.61h85.545v112.46h-85.545z" fill="url(#c)"/>
  <g transform="matrix(2.0333 0 0 2.0662 -589.22 325.67)" fill="none" stroke="#fff" stroke-opacity=".40741">
   <path d="m290.75 291.86h145.99" stroke-width=".50556"/>
   <path d="m290.75 294.57h145.99" stroke-width=".50556"/>
   <path d="m290.75 297.27h145.99" stroke-width=".50556"/>
   <path d="m290.75 299.97h145.99" stroke-width=".50556"/>
   <path d="m290.75 302.67h145.99" stroke-width=".50556"/>
   <path d="m290.75 305.38h145.99" stroke-width=".50556"/>
   <path d="m290.75 308.08h145.99" stroke-width=".50556"/>
   <path d="m290.75 310.78h145.99" stroke-width=".50556"/>
   <path d="m290.75 313.48h145.99" stroke-width=".50556"/>
   <path d="m290.75 316.18h145.99" stroke-width=".50556"/>
   <path d="m290.75 318.89h145.99" stroke-width=".50556"/>
   <path d="m290.75 324.29h145.99" stroke-width=".50556"/>
   <path d="m290.75 326.99h145.99" stroke-width=".50556"/>
   <path d="m290.75 329.69h145.99" stroke-width=".50556"/>
   <path d="m290.75 332.4h145.99" stroke-width=".50556"/>
   <path d="m290.75 335.1h145.99" stroke-width=".50556"/>
   <path d="m290.75 337.8h145.99" stroke-width=".50556"/>
   <path d="m290.75 340.5h145.99" stroke-width=".50556"/>
   <path d="m290.75 343.21h145.99" stroke-width=".50556"/>
   <path d="m290.75 345.91h145.99" stroke-width=".50556"/>
   <path d="m291.87 348.61h143.9" stroke-width=".50192"/>
   <path d="m290.75 321.59h145.99" stroke-width=".50556"/>
  </g>
  <g transform="scale(.9962 1.0038)" font-family="Bitstream Vera Sans" font-size="15.899">
   <path d="m17.763 1002.6v-11.381h2.2669l2.6939 8.0584c0.24842 0.75042 0.42957 1.312 0.54344 1.6846 0.12938-0.414 0.33123-1.0221 0.60554-1.8244l2.7249-7.9186h2.0262v11.381h-1.4518v-9.5256l-3.3072 9.5256h-1.3586l-3.2917-9.6887v9.6887z"/>
   <path d="m36.2708,1001.5737c-.51756.4399-1.01571.7505-1.49445.9316s-.99242.2717-1.54103.2717c-.90573,0-1.60184-.2212-2.08834-.6637s-.72976-1.008-.72976-1.6963c-1e-006-.4037.09187-.77249.2756-1.10632s.4244-.60166.72199-.80351 .63271-.35452 1.00536-.45804c.2743-.0725.68835-.14232 1.24214-.20961 1.12827-.13456 1.95895-.295 2.49204-.48133 .0052-.19149.0078-.31311.0078-.36487-7e-006-.56931-.13198-.97042-.39593-1.20333-.35712-.3157-.88762-.47355-1.59149-.47356-.6573,1e-005-1.14251.11516-1.45563.34547s-.54473.63789-.69482,1.22273l-1.36635-.18632c.12421-.58484.32865-1.05711.61331-1.41682s.69611-.63658 1.23437-.83068 1.16191-.29111 1.87097-.29112c.70387,1e-005 1.27577.0828 1.7157.24843s.76339.37394.97042.62495 .35193.56802.43475.95101c.04657.23808.06986.66765.06987,1.28872v1.8632c-8e-006,1.2991.02975,2.1207.08928,2.4649s.17726.6741.35323.9898h-1.45951c-.14492-.2898-.23808-.6288-.27948-1.017zm-.11645-3.12087c-.50721.20702-1.26802.38299-2.28243.52791-.57449.0828-.98077.17597-1.21885.27948s-.42181.2549-.5512.45415-.19409.42053-.19408.66373c-2e-006,.3727.14103.6832.4231.9316s.69482.3727 1.23826.3727 1.017-.1178 1.43622-.3532 .72716-.5577.92384-.9666c.15009-.3157.22513-.78149.22514-1.39739z"/>
   <path d="m38.809 1002.6 3.0122-4.2854-2.787-3.9593h1.7468l1.2654 1.9331c0.23807 0.36747 0.42957 0.67541 0.57449 0.92384 0.22772-0.34159 0.43733-0.64436 0.62883-0.90832l1.3896-1.9486h1.6691l-2.8492 3.8817 3.0665 4.363h-1.7157l-1.6924-2.5619-0.45027-0.69095-2.166 3.2528z"/>
   <path d="m52.232 1002.6v-11.381h2.2669l2.6939 8.0584c0.24842 0.75042 0.42957 1.312 0.54344 1.6846 0.12938-0.414 0.33123-1.0221 0.60554-1.8244l2.7249-7.9186h2.0262v11.381h-1.4518v-9.5256l-3.3072 9.5256h-1.3586l-3.2917-9.6887v9.6887z"/>
   <path d="m70.76341,1002.5907v-1.2111c-.64178.9316-1.51386,1.3974-2.61625,1.3974-.48651,0-.94066-.093-1.36247-.2795s-.73493-.4205-.93937-.7025-.34806-.6276-.43087-1.0365c-.05693-.2743-.0854-.709-.0854-1.3042v-5.10829h1.39741v4.57262c-3e-006,.72976.02846,1.22147.0854,1.47507 .08798.3674.2743.656.55896.8656s.63659.3144 1.05582.3144 .81256-.1074 1.18003-.3222 .62753-.5072.78022-.8772 .22901-.90706.22902-1.61094v-4.41735h1.39741v8.24469z"/>
   <path d="m73.65138,1000.1297 1.38188-.21736c.07763.55376.29371.97816.64824,1.27316 .35452.295.85008.4425 1.48668.4425s1.11792-.1306 1.42846-.392 .4658-.568.4658-.92c-6e-006-.3157-.13716-.5641-.41146-.74525-.1915-.12421-.66765-.28206-1.42846-.47356-1.02477-.25878-1.73511-.48262-2.13104-.67153s-.69612-.45028-.90055-.7841-.30665-.70258-.30665-1.10628c-1e-006-.36746.0841-.70776.25231-1.02088s.39722-.57319.68706-.78022c.21737-.16044.51367-.2963.8889-.40758s.77763-.1669 1.2072-.16691c.64694,1e-005 1.21496.0932 1.70406.27948s.85008.43864 1.08299.75693 .39334.74399.48133,1.27707l-1.36635.18632c-.06211-.42439-.24196-.75563-.53955-.99371s-.71811-.35711-1.26155-.35711c-.64177,0-1.09981.1061-1.37412.31829s-.41146.46064-.41146.74529c-2e-006,.18115.05693.34418.17079.48909 .11386.1501.29242.27431.53567.37264 .13974.0518.55119.1708 1.23437.35711 .98853.26396 1.67817.48004 2.06894.64824s.6974.41276.91996.73364 .33382.71941.33382,1.19553c-7e-006,.4658-.13587.9045-.40758,1.3159s-.66377.7298-1.17615.9549-1.09205.3377-1.73899.3377c-1.07135,0-1.88779-.2225-2.44934-.6676s-.91996-1.105-1.07523-1.9797z"/>
   <path d="m85.21102,1001.3408 .20185,1.2344c-.39335.083-.74529.1242-1.05582.1242-.50721,0-.90055-.08-1.18003-.2407s-.47615-.3713-.59001-.6327-.1708-.8113-.17079-1.6497v-4.74342h-1.02476v-1.08687h1.02476v-2.04176l1.38964-.83845v2.88021h1.40517v1.08687h-1.40517v4.82102c-3e-006,.3985.02458.6547.07375.7686s.12939.2044.24066.2717 .27042.1009.47745.1009c.15526,0 .3597-.018.6133-.054z"/>
   <path d="m92.214 999.94 1.444 0.17857c-0.22773 0.8436-0.64954 1.4983-1.2654 1.9641s-1.4026 0.6987-2.3601 0.6987c-1.2059 0-2.1621-0.3713-2.8686-1.114s-1.0597-1.7843-1.0597-3.1248c-1e-6 -1.387 0.35711-2.4636 1.0713-3.2296s1.6406-1.149 2.7793-1.149c1.1024 1e-5 2.0029 0.37524 2.7016 1.1257s1.048 1.8063 1.048 3.1674c-8e-6 0.0828-0.0026 0.20702-0.0078 0.37264h-6.1486c0.05175 0.90573 0.30794 1.5992 0.76857 2.0805s1.0351 0.722 1.7235 0.722c0.51238 0 0.94971-0.1345 1.312-0.4037s0.64953-0.6987 0.86173-1.2887zm-4.5882-2.2591h4.6037c-0.06211-0.69352-0.23808-1.2137-0.52791-1.5604-0.4451-0.53826-1.0222-0.80739-1.7312-0.80739-0.64177 0-1.1813 0.21479-1.6187 0.64435s-0.6793 1.0041-0.72588 1.7235z"/>
   <path d="m95.40431,1002.5907v-8.24469h1.25766v1.2499c.32088-.58483.61718-.97041.8889-1.15674s.5706-.27947.89667-.27948c.47097,1e-005 .94971.1501 1.43622.45027l-.48133,1.29648c-.34159-.20184-.68318-.30276-1.02476-.30277-.30536,1e-005-.57967.0919-.82292.2756s-.41664.43864-.52014.76469c-.15527.49686-.2329,1.0403-.2329,1.63031v4.31643z"/>
   <path d="m100.72998,1002.5907v-8.24469h1.24991v1.15674c.25877-.40369.60295-.72845 1.03252-.9743s.91866-.36875 1.46728-.36876c.61071,1e-005 1.11145.12681 1.50221.3804s.66635.60814.8268,1.06358c.65211-.96265 1.5009-1.44397 2.54638-1.44398 .81773,1e-005 1.44656.22644 1.88649.67929s.65988,1.15028.65989,2.09223v5.65949h-1.38964v-5.19369c-1e-005-.55896-.0453-.96136-.13586-1.2072s-.25491-.4438-.49297-.5939-.51757-.22513-.83845-.22514c-.57967,1e-005-1.061.1928-1.44398.57837s-.5745,1.00278-.57449,1.85156v4.79h-1.39741v-5.35672c0-.62106-.11386-1.08686-.34158-1.39741s-.60037-.46579-1.11793-.4658c-.39334,1e-005-.75693.10352-1.09075.31054s-.57578.5098-.72587.90831-.22514.97301-.22514,1.72347v4.27761z"/>
   <path d="m119.36981,1001.5737c-.51756.4399-1.01571.7505-1.49444.9316s-.99242.2717-1.54103.2717c-.90573,0-1.60184-.2212-2.08835-.6637s-.72975-1.008-.72975-1.6963c0-.4037.0919-.77249.2756-1.10632s.42439-.60166.72199-.80351 .63271-.35452 1.00536-.45804c.2743-.0725.68834-.14232 1.24213-.20961 1.12827-.13456 1.95895-.295 2.49204-.48133 .005-.19149.008-.31311.008-.36487-1e-005-.56931-.13199-.97042-.39594-1.20333-.35712-.3157-.88761-.47355-1.59149-.47356-.6573,1e-005-1.14251.11516-1.45563.34547s-.54473.63789-.69482,1.22273l-1.36635-.18632c.12422-.58484.32865-1.05711.61331-1.41682s.69611-.63658 1.23437-.83068 1.16191-.29111 1.87097-.29112c.70387,1e-005 1.27578.0828 1.7157.24843s.76339.37394.97042.62495 .35194.56802.43475.95101c.0466.23808.0699.66765.0699,1.28872v1.8632c0,1.2991.0298,2.1207.0893,2.4649s.17726.6741.35323.9898h-1.45951c-.14492-.2898-.23808-.6288-.27948-1.017zm-.11645-3.12087c-.50721.20702-1.26802.38299-2.28243.52791-.57449.0828-.98077.17597-1.21884.27948s-.42182.2549-.5512.45415-.19409.42053-.19409.66373c0,.3727.14104.6832.42311.9316s.69481.3727 1.23825.3727 1.017-.1178 1.43622-.3532 .72717-.5577.92384-.9666c.15009-.3157.22514-.78149.22514-1.39739z"/>
   <path d="m122.84003,1002.5907v-8.24469h1.25767v1.17227c.60553-.90572 1.48021-1.35858 2.62401-1.35859 .49685,1e-005 .95359.0893 1.37023.26783s.72846.41276.93549.70259 .35193.63401.43475,1.03253c.0517.25878.0776.71164.0776,1.35858v5.06948h-1.3974v-5.01513c-1e-005-.56931-.0543-.995-.16303-1.27708s-.30149-.50719-.57838-.67541-.60166-.2523-.9743-.25231c-.59519,1e-005-1.10887.18892-1.54102.56673s-.64825,1.09464-.64824,2.15045v4.50275z"/>
   <path d="m131.69027,1002.5907v-8.24469h1.25766v1.17227c.60554-.90572 1.48021-1.35858 2.62402-1.35859 .49685,1e-005 .95359.0893 1.37023.26783s.72845.41276.93548.70259 .35194.63401.43475,1.03253c.0517.25878.0776.71164.0776,1.35858v5.06948h-1.39741v-5.01513c-1e-005-.56931-.0543-.995-.16303-1.27708s-.30148-.50719-.57837-.67541-.60167-.2523-.9743-.25231c-.5952,1e-005-1.10887.18892-1.54103.56673s-.64824,1.09464-.64824,2.15045v4.50275z"/>
  </g>
  <g transform="scale(.9962 1.0038)" font-family="Bitstream Vera Sans" font-size="6.5887">
   <path d="m17.653 1021.4v-4.7163h0.62413v2.3389l2.3421-2.3389h0.84611l-1.9786 1.911 2.0654 2.8053h-0.82359l-1.6794-2.3871-0.77212 0.7528v1.6343z"/>
   <path d="m21.79008,1019.7332c-1e-006-.6327.17587-1.1013.52761-1.4059 .29383-.2531.65201-.3796 1.07453-.3796 .4697,0 .85362.1539 1.15174.4617s.44718.7329.44719,1.2756c-4e-006,.4396-.06595.7855-.19786,1.0375s-.32386.4477-.57587.5871-.52708.2091-.8252.2091c-.47829,0-.86488-.1533-1.15979-.46s-.44236-.7485-.44236-1.3255zm.59517,0c-1e-006,.4376.09544.7652.28633.9829s.4311.3265.72064.3265 .52654-.1094.71742-.3281 .28632-.5523.28633-1.0006c-3e-006-.4225-.09598-.7426-.28794-.9603s-.43056-.3265-.71582-.3265-.52976.1083-.72064.3249-.28633.5437-.28633.9812z"/>
   <path d="m25.67318,1021.4415v-3.4166h.52118v.4858c.25094-.3753.6134-.563 1.0874-.563 .2059,0 .39517.037.56783.111s.30187.171.38767.2911 .14584.2628.18016.4279c.02144.1073.03217.2949.03217.563v2.1008h-.57909v-2.0783c-2e-006-.2359-.02252-.4123-.06756-.5292s-.12494-.2102-.23968-.2799-.24933-.1045-.40375-.1045c-.24665,0-.45952.078-.6386.2348s-.26863.4536-.26863.8912v1.8659z"/>
   <path d="m30.60508,1020.9236 .08365.5115c-.163.034-.30885.051-.43753.051-.21019,0-.37319-.033-.48901-.1s-.19732-.1539-.2445-.2622-.07078-.3362-.07078-.6836v-1.9657h-.42467v-.4504h.42467v-.8461l.57587-.3475v1.1936h.5823v.4504h-.5823v1.9979c-1e-006,.1651.01019.2713.03056.3185s.05362.085.09973.1126 .11206.042.19786.042c.06434,0 .14906-.01.25416-.023z"/>
   <path d="m30.95253,1019.7332c0-.6327.17587-1.1013.52761-1.4059 .29383-.2531.65201-.3796 1.07453-.3796 .4697,0 .85362.1539 1.15174.4617s.44718.7329.44718,1.2756c-3e-006,.4396-.06595.7855-.19786,1.0375s-.32386.4477-.57587.5871-.52708.2091-.8252.2091c-.47829,0-.86488-.1533-1.15978-.46s-.44236-.7485-.44236-1.3255zm.59517,0c-1e-006,.4376.09544.7652.28633.9829s.4311.3265.72064.3265 .52654-.1094.71743-.3281 .28632-.5523.28633-1.0006c-2e-006-.4225-.09598-.7426-.28794-.9603s-.43056-.3265-.71582-.3265-.52976.1083-.72064.3249-.28633.5437-.28633.9812z"/>
   <path d="m34.61 1020v-0.5823h1.7791v0.5823z"/>
   <path d="m37.104 1021.4v-4.7163h0.64021l2.4772 3.7029v-3.7029h0.59839v4.7163h-0.64021l-2.4772-3.7061v3.7061z"/>
   <path d="m41.79113,1021.4415v-3.4166h.52118v.518c.13297-.2424.25576-.4022.36836-.4794s.23646-.1158.37158-.1158c.19517,0 .39356.062.59517.1866l-.19946.5373c-.14156-.084-.28311-.1255-.42466-.1255-.12654,0-.24022.038-.34102.1142s-.17266.1818-.21555.3169c-.06434.2059-.09651.4311-.09651.6756v1.7887z"/>
   <path d="m44.162 1021.4v-0.6595h0.65952v0.6595z"/>
  </g>
  <g transform="scale(.9962 1.0038)" font-family="Arial" font-size="12.292">
   <path d="m17.24094,1028.7265c0-1.0404.10703-1.8776.3211-2.5118s.53216-1.1234.9543-1.4675 .95329-.5161 1.59349-.5161c.47214,0 .88627.095 1.24238.2851s.65019.4641.88227.8222 .41412.7943.54617,1.3084 .19806,1.2074.19806,2.0797c-6e-006,1.0323-.10604,1.8655-.3181,2.4997s-.52917,1.1244-.95129,1.4705-.9553.5191-1.59949.5191c-.84827,0-1.51447-.3041-1.99862-.9122-.58018-.7323-.87027-1.9246-.87027-3.5771zm1.11034,0c-1e-006,1.4444.16905,2.4057.50716,2.8838s.75523.7173 1.25139.7173 .91328-.2401 1.25139-.7203 .50715-1.4404.50716-2.8808c-5e-006-1.4485-.16906-2.4108-.50716-2.8869s-.75924-.7143-1.26339-.7143-.89228.2101-1.18837.6302c-.37212.5362-.55817,1.5265-.55817,2.971z"/>
   <path d="m25.74557,1028.2943c-.44814-.164-.78024-.3981-.99631-.7022s-.3241-.6682-.3241-1.0923c-1e-006-.6402.23007-1.1784.69021-1.6145s1.07233-.6542 1.83657-.6542c.76823,0 1.38642.223 1.85457.6692s.70221.9893.70222,1.6295c-6e-006,.4081-.10704.7632-.3211,1.0653s-.53917.5352-.9753.6992c.54016.1761.95129.4602 1.23338.8523s.42312.8603.42313,1.4044c-7e-006,.7523-.26609,1.3844-.79825,1.8966s-1.23239.7682-2.10065.7682-1.56849-.257-2.10065-.7712-.79825-1.1554-.79825-1.9236c-1e-006-.5722.14504-1.0513.43513-1.4374s.70322-.6492 1.23938-.7893zm-.21607-1.8305c-2e-006,.4161.13404.7562.40212,1.0203s.61619.3961 1.04432.3961c.41612,0 .75723-.131 1.02332-.3931s.39912-.5832.39912-.9633c-5e-006-.3961-.13705-.7292-.41113-.9993s-.61519-.4052-1.02332-.4052-.75424.1321-1.02632.3962-.40813.5801-.40813.9483zm-.34811,4.0632c-2e-006,.3081.07302.6062.21907.8943s.36311.5111.6512.6692 .59818.2371.93029.2371c.51616,0 .94229-.1661 1.27839-.4982s.50415-.7542.50416-1.2664c-5e-006-.5201-.17306-.9503-.51916-1.2904s-.77924-.5101-1.2994-.5101c-.50816,0-.92929.168-1.26339.5041s-.50116.7563-.50116,1.2604z"/>
   <path d="m34.99443,1033.0658h-1.08033v-6.8841c-.26008.2481-.60119.4961-1.02332.7442s-.80125.4341-1.13735.5582v-1.0444c.60418-.284 1.13235-.6281 1.58449-1.0323s.77224-.7962.9603-1.1763h.69622z"/>
   <path d="m37.76729,1030.7611 1.13435-.096c.08402.5521.27908.9673.58518,1.2453s.67521.4172 1.10734.4172c.52016,0 .96029-.1961 1.32041-.5882s.54016-.9123.54017-1.5605c-5e-006-.6162-.17306-1.1023-.51916-1.4584s-.79925-.5342-1.35942-.5342c-.34811,0-.66221.079-.94229.2371s-.50016.3631-.6602.6152l-1.01431-.1321 .85226-4.5194h4.37535v1.0323h-3.51109l-.47415,2.3648c.52816-.3681 1.08233-.5522 1.66251-.5522 .76823,0 1.41643.2661 1.9446.7982s.79224,1.2164.79224,2.0527c-6e-006,.7962-.23208,1.4844-.69622,2.0646-.56418.7122-1.33442,1.0683-2.31071,1.0683-.80025,0-1.45345-.224-1.95961-.6722s-.79525-1.0423-.86727-1.7825z"/>
   <path d="m48.67866,1033.0658h-1.08033v-6.8841c-.26008.2481-.60119.4961-1.02332.7442s-.80125.4341-1.13735.5582v-1.0444c.60418-.284 1.13235-.6281 1.58449-1.0323s.77223-.7962.9603-1.1763h.69622z"/>
   <path d="m57.12927,1032.0275v1.0383h-5.8158c-.008-.2601.03401-.5102.12604-.7502 .14805-.3962.38512-.7863.71122-1.1704s.79724-.8283 1.41344-1.3324c.95629-.7842 1.60249-1.4054 1.9386-1.8636s.50415-.8913.50416-1.2994c-5e-006-.4281-.15305-.7892-.45914-1.0833s-.70522-.4412-1.19737-.4412c-.52016,0-.93629.1561-1.24839.4682s-.47015.7442-.47415,1.2964l-1.11034-.114c.07602-.8283.36211-1.4595.85826-1.8936s1.16236-.6512 1.99862-.6512 1.51246.234 2.00462.7022 .73822,1.0483.73823,1.7405c-6e-006,.3521-.07203.6982-.21607,1.0383s-.38312.6983-.71722,1.0744-.88928.8923-1.66552,1.5485c-.6482.5441-1.06433.9132-1.24839,1.1073s-.3361.3891-.45614.5852z"/>
   <path d="m58.29963,1030.7431 1.08033-.1441c.12404.6122.3351,1.0534.6332,1.3234s.6612.4052 1.08934.4052c.50815,0 .93729-.1761 1.2874-.5282s.52516-.7882.52516-1.3084c-5e-006-.4962-.16206-.9053-.48615-1.2274s-.73623-.4831-1.23638-.4831c-.20407,0-.45815.04-.76224.12l.12004-.9483c.07202.01.13004.012.17405.012 .46014,0 .87427-.12 1.24238-.3601s.55217-.6102.55217-1.1103c-4e-006-.3962-.13405-.7243-.40212-.9843s-.61419-.3902-1.03832-.3902-.77024.1321-1.05032.3962-.46014.6602-.54017,1.1883l-1.08033-.192c.13204-.7242.43213-1.2854.90028-1.6835s1.05032-.5972 1.74654-.5972c.48014,0 .92228.103 1.32641.3091s.71322.4871.92729.8432 .32109.7343.3211,1.1344c-6e-006,.3801-.10204.7262-.3061,1.0383s-.50616.5602-.90628.7442c.52016.1201.92428.3691 1.21238.7473s.43213.8512.43213,1.4194c-6e-006,.7682-.28009,1.4194-.84026,1.9536s-1.2684.8012-2.12466.8012c-.77224,0-1.41344-.23-1.92359-.6902s-.80125-1.0563-.87327-1.7885z"/>
   <path d="m68.599 1033.1v-2.1067h-3.8172v-0.9903l4.0152-5.7017h0.88227v5.7017h1.1884v0.9903h-1.1884v2.1067zm0-3.097v-3.9672l-2.7548 3.9672z"/>
   <path d="m71.97786,1030.7611 1.13435-.096c.08402.5521.27909.9673.58518,1.2453s.67521.4172 1.10734.4172c.52016,0 .96029-.1961 1.32041-.5882s.54016-.9123.54017-1.5605c-5e-006-.6162-.17306-1.1023-.51916-1.4584s-.79925-.5342-1.35942-.5342c-.34811,0-.66221.079-.94229.2371s-.50016.3631-.6602.6152l-1.01431-.1321 .85226-4.5194h4.37535v1.0323h-3.51109l-.47415,2.3648c.52816-.3681 1.08233-.5522 1.66251-.5522 .76823,0 1.41643.2661 1.9446.7982s.79224,1.2164.79224,2.0527c-7e-006,.7962-.23208,1.4844-.69622,2.0646-.56418.7122-1.33442,1.0683-2.31071,1.0683-.80025,0-1.45345-.224-1.95961-.6722s-.79525-1.0423-.86727-1.7825z"/>
   <path d="m84.4257,1026.4217-1.07433.084c-.09604-.4242-.23208-.7323-.40813-.9243-.29209-.3081-.65221-.4622-1.08033-.4622-.34411,0-.6462.096-.90628.2881-.34011.2481-.60819.6102-.80425,1.0864s-.29809,1.1543-.3061,2.0346c.26008-.3961.57818-.6902.9543-.8823s.77024-.2881 1.18237-.2881c.72022,0 1.33341.2651 1.83957.7953s.75923,1.2154.75923,2.0556c-6e-006,.5522-.11904,1.0653-.35711,1.5395s-.56518.8372-.9813,1.0893-.88828.3781-1.41644.3781c-.90028,0-1.63451-.3311-2.20268-.9933s-.85226-1.7535-.85226-3.274c0-1.7005.3141-2.9369.94229-3.7091 .54817-.6722 1.28639-1.0083 2.21468-1.0083 .69221,0 1.25938.194 1.70153.5821s.70721.9243.79525,1.6085zm-4.41136,3.7932c-1e-006,.3721.07902.7282.23707,1.0683s.37911.5992.66321.7773 .58218.2671.89428.2671c.45614,0 .84826-.1841 1.17636-.5522s.49215-.8683.49215-1.5005c-6e-006-.6082-.16206-1.0873-.48615-1.4374s-.73223-.5252-1.22438-.5252-.90228.1751-1.24238.5252-.51016.8092-.51016,1.3774z"/>
  </g>
  <g transform="scale(.9962 1.0038)" font-family="Bitstream Vera Sans" font-size="6.5887">
   <path d="m96.88333,1019.5917v-.5534h1.99785v1.7501c-.30671.2445-.62306.4284-.94906.5518s-.66059.185-1.00375.185c-.46327,0-.88418-.099-1.26273-.2976s-.66434-.4853-.85737-.8606-.28954-.7947-.28954-1.2579 .09598-.8874.28794-1.2853 .46809-.6933.82842-.8863 .77533-.2895 1.24504-.2895c.34102,0 .64933.055.92493.1656s.49168.2644.64826.4617 .2756.4547.3571.7721l-.563.1544c-.07078-.2402-.15872-.4289-.26381-.5662s-.25523-.2472-.4504-.3297-.4118-.1239-.64987-.1239c-.28526,0-.5319.043-.73994.1303s-.37587.2011-.50348.3426-.22681.2971-.29759.4665c-.12011.2917-.18016.6081-.18016.9491-1e-006,.4203.07238.7721.21716,1.0552s.35549.4933.63217.6306 .57051.2059.8815.2059c.27024,0 .53404-.052.79142-.1561s.45254-.215.58552-.333v-.8782z"/>
   <path d="m101.96322,1021.4415v-.5018c-.26596.386-.62735.579-1.08418.579-.20161,0-.38982-.039-.56461-.1158s-.30456-.1742-.38928-.2911-.14424-.2601-.17855-.4295c-.02359-.1137-.03539-.2939-.03539-.5405v-2.1169h.57909v1.8949c0,.3024.0118.5062.0354.6113 .0365.1523.11367.2718.23163.3587s.26381.1303.43753.1303 .33673-.044.48901-.1335 .26005-.2102.32333-.3636 .0949-.3758.0949-.6675v-1.8306h.57909v3.4166zm-1.76944-4.0858v-.6595h.60483v.6595zm1.2,0v-.6595h.60483v.6595z"/>
   <path d="m103.38 1021.4v-4.7163h0.57908v4.7163z"/>
   <path d="m106.123,1020.9236 .0836.5115c-.16301.034-.30885.051-.43754.051-.21019,0-.37319-.033-.489-.1s-.19732-.1539-.24451-.2622-.0708-.3362-.0708-.6836v-1.9657h-.42466v-.4504h.42466v-.8461l.57587-.3475v1.1936h.58231v.4504h-.58231v1.9979c0,.1651.0102.2713.0306.3185s.0536.085.0997.1126 .11206.042.19785.042c.0643,0 .14906-.01.25416-.023z"/>
   <path d="m106.69 1017.4v-0.6659h0.57909v0.6659zm0 4.0504v-3.4166h0.57909v3.4166z"/>
   <path d="m108.04686,1021.7246 .563.084c.0236.1737.089.3003.19625.3796 .14369.1072.33994.1609.58874.1609 .26809,0 .47506-.054.62091-.1609s.2445-.2574.29597-.4504c.03-.118.044-.3657.0418-.7432-.25309.2982-.56837.4472-.94585.4472-.4697,0-.83324-.1694-1.09061-.5083s-.38606-.7453-.38606-1.2193c0-.326.059-.6268.17694-.9024s.28901-.4885.51314-.6386 .4874-.2252.78981-.2252c.40322,0 .73565.163.99732.489v-.4118h.53405v2.9534c-1e-005,.5319-.0542.9088-.16247,1.1308s-.27989.3973-.51474.526-.52387.193-.86703.193c-.4075,0-.73673-.092-.98766-.275s-.37212-.4596-.36354-.8285zm.47935-2.0525c0,.4483.089.7753.26703.9812s.40107.3089.66917.3089 .489-.1024.66916-.3073 .27024-.526.27025-.9635c-1e-005-.4182-.0928-.7335-.27829-.9458s-.40912-.3185-.67078-.3185-.47614.1045-.6563.3136-.27024.5196-.27024.9314z"/>
   <path d="m114.18197,1021.4415h-.53726v-4.7163h.57908v1.6826c.24451-.3067.55657-.4601.9362-.4601 .21018,0 .40911.042.59678.1271s.34209.2037.46327.3571 .21608.3383.28472.5549 .10294.4483.10295.6949c-1e-005,.5856-.14478,1.0381-.43432,1.3577s-.637.4793-1.04236.4793c-.40322,0-.71957-.1683-.94906-.5051zm-.006-1.734c0,.4096.0558.7056.16729.8879 .1823.2981.42895.4472.73994.4472 .25309,0 .47185-.1099.6563-.3298s.27668-.5474.27668-.9828c0-.4461-.0885-.7753-.26542-.9877s-.39088-.3185-.64182-.3185-.47185.11-.6563.3298-.27667.5378-.27667.9539z"/>
   <path d="m117.32 1017.4v-0.6659h0.57909v0.6659zm0 4.0504v-3.4166h0.57909v3.4166z"/>
   <path d="m118.55087,1020.4217 .57265-.09c.0322.2295.12172.4054.26863.5276s.35228.1834.61609.1834c.26595,0 .46327-.054.59195-.1625s.19303-.2354.19303-.3812c0-.1308-.0568-.2338-.17051-.3088-.0793-.052-.27667-.1169-.59195-.1963-.42467-.1072-.71904-.2-.88311-.2783s-.28847-.1866-.37319-.3249-.12708-.2912-.12708-.4585c0-.1522.0349-.2932.10456-.423s.16461-.2375.28472-.3233c.0901-.067.21287-.1228.36836-.1689s.32225-.069.50027-.069c.26809,0 .50348.039.70616.1158s.35228.1818.4488.3137 .163.3083.19946.5292l-.56622.077c-.0257-.1758-.10027-.3131-.22359-.4118s-.29759-.148-.52279-.148c-.26595,0-.45576.044-.56943.1319s-.17051.1909-.17051.3089c0,.075.0236.1426.0708.2027s.12118.1136.22199.1544l.51153.148c.40964.1094.69543.1989.85737.2686s.289.1711.38123.304 .13833.2982.13834.4955c-1e-005,.193-.0563.3748-.1689.5453s-.27507.3024-.4874.3957-.45255.1399-.72064.1399c-.44397,0-.78231-.092-1.01502-.2766s-.38123-.4579-.44557-.8204z"/>
  </g>
  <g transform="scale(.9962 1.0038)" font-family="Arial" font-size="12.292">
   <path d="m100.75967,1032.0713v1.0383h-5.81579c-.008-.2601.03401-.5101.12604-.7502 .14805-.3961.38512-.7863.71122-1.1704s.79724-.8282 1.41344-1.3324c.95629-.7842 1.60249-1.4054 1.9386-1.8636s.50415-.8912.50416-1.2994c-6e-006-.4281-.15305-.7892-.45914-1.0833s-.70522-.4411-1.19737-.4411c-.52016,0-.93629.156-1.24839.4681s-.47015.7442-.47415,1.2964l-1.11034-.114c.07602-.8283.36211-1.4595.85826-1.8936s1.16236-.6512 1.99862-.6512 1.51246.2341 2.00462.7022 .73822,1.0483.73823,1.7405c-1e-005,.3522-.072.6983-.21607,1.0384s-.38312.6982-.71722,1.0743-.88928.8923-1.66551,1.5485c-.6482.5441-1.06433.9133-1.24839,1.1073s-.33611.3891-.45614.5852z"/>
   <path d="m101.92403,1028.7703c0-1.0403.10704-1.8776.3211-2.5118s.53217-1.1233.9543-1.4675 .95329-.5161 1.59349-.5161c.47214,0 .88627.095 1.24238.2851s.6502.4641.88228.8222 .41412.7943.54617,1.3084 .19805,1.2074.19806,2.0797c-1e-005,1.0323-.10604,1.8656-.3181,2.4998s-.52917,1.1243-.95129,1.4704-.9553.5192-1.5995.5192c-.84826,0-1.51447-.3041-1.99862-.9123-.58018-.7322-.87027-1.9246-.87027-3.5771zm1.11035,0c0,1.4444.16905,2.4057.50715,2.8839s.75523.7172 1.25139.7172 .91328-.2401 1.25139-.7202 .50715-1.4405.50715-2.8809c0-1.4485-.16905-2.4108-.50715-2.8869s-.75924-.7142-1.26339-.7142-.89228.21-1.18837.6302c-.37212.5361-.55817,1.5264-.55817,2.9709z"/>
   <path d="m114.4439,1032.0713v1.0383h-5.81579c-.008-.2601.034-.5101.12603-.7502 .14805-.3961.38512-.7863.71122-1.1704s.79725-.8282 1.41344-1.3324c.95629-.7842 1.60249-1.4054 1.9386-1.8636s.50415-.8912.50416-1.2994c-1e-005-.4281-.15306-.7892-.45915-1.0833s-.70522-.4411-1.19737-.4411c-.52016,0-.93629.156-1.24838.4681s-.47015.7442-.47415,1.2964l-1.11034-.114c.076-.8283.36211-1.4595.85826-1.8936s1.16236-.6512 1.99862-.6512 1.51246.2341 2.00462.7022 .73822,1.0483.73823,1.7405c-1e-005,.3522-.072.6983-.21607,1.0384s-.38312.6982-.71722,1.0743-.88928.8923-1.66551,1.5485c-.64821.5441-1.06433.9133-1.24839,1.1073s-.33611.3891-.45614.5852z"/>
   <path d="m115.60826,1028.7703c0-1.0403.10704-1.8776.3211-2.5118s.53217-1.1233.9543-1.4675 .95329-.5161 1.59349-.5161c.47214,0 .88627.095 1.24238.2851s.6502.4641.88228.8222 .41412.7943.54617,1.3084 .19805,1.2074.19806,2.0797c-1e-005,1.0323-.10604,1.8656-.3181,2.4998s-.52917,1.1243-.9513,1.4704-.95529.5192-1.59949.5192c-.84826,0-1.51447-.3041-1.99862-.9123-.58018-.7322-.87027-1.9246-.87027-3.5771zm1.11035,0c0,1.4444.16905,2.4057.50715,2.8839s.75523.7172 1.25139.7172 .91328-.2401 1.25139-.7202 .50715-1.4405.50715-2.8809c0-1.4485-.16905-2.4108-.50715-2.8869s-.75924-.7142-1.26339-.7142-.89228.21-1.18837.6302c-.37212.5361-.55817,1.5264-.55817,2.9709z"/>
  </g>
  <g transform="scale(.9962 1.0038)" font-family="Bitstream Vera Sans" font-size="6.5887">
   <path d="m132.43 1021.4v-4.7163h0.62413v2.3389l2.3421-2.3389h0.84611l-1.9786 1.911 2.0654 2.8053h-0.82359l-1.6794-2.3871-0.77212 0.7528v1.6343z"/>
   <path d="m139.00956,1021.0201c-.21448.1823-.42091.311-.6193.386-.1984.075-.41126.1126-.63861.1126-.37533,0-.66381-.092-.86541-.275s-.30242-.4177-.30242-.703c0-.1673.0381-.3201.11421-.4584s.17587-.2493.2992-.333 .2622-.1469.41662-.1898c.11367-.03.28525-.059.51474-.087 .46756-.056.8118-.1222 1.03271-.1994 .002-.079.003-.1298.003-.1512 0-.236-.0547-.4022-.16408-.4987-.14799-.1308-.36783-.1962-.65951-.1962-.27239,0-.47346.048-.60322.1431s-.22574.2644-.28793.5067l-.56622-.077c.0515-.2423.13619-.4381.25415-.5871s.28847-.2638.51153-.3443 .4815-.1206.77533-.1206 .52869.034.71099.1029 .31635.155.40215.259 .14584.2354.18016.3941c.0193.099.029.2767.029.5341v.7721c0,.5383.0123.8788.037,1.0214s.0735.2794.14638.4102h-.60482c-.0601-.1201-.0987-.2606-.11582-.4214zm-.0483-1.2933c-.21019.086-.52547.1587-.94584.2188-.23807.034-.40644.073-.5051.1158s-.1748.1056-.22841.1882-.0804.1742-.0804.275c0,.1545.0584.2831.17533.3861s.28794.1544.51314.1544c.22305,0 .42144-.049.59517-.1464s.30134-.2311.38284-.4005c.0622-.1308.0933-.3239.0933-.5791z"/>
   <path d="m140.44119,1021.4415v-3.4166h.52118v.518c.13298-.2424.25576-.4022.36837-.4794s.23646-.1158.37158-.1158c.19517,0 .39356.062.59517.1866l-.19946.5373c-.14156-.084-.28311-.1255-.42467-.1255-.12654,0-.24021.038-.34102.1142s-.17265.1818-.21554.3169c-.0644.2059-.0965.4311-.0965.6756v1.7887z"/>
   <path d="m143.9125,1020.9236 .0837.5115c-.16301.034-.30885.051-.43754.051-.21018,0-.37319-.033-.489-.1s-.19732-.1539-.24451-.2622-.0708-.3362-.0708-.6836v-1.9657h-.42467v-.4504h.42467v-.8461l.57587-.3475v1.1936h.5823v.4504h-.5823v1.9979c0,.1651.0102.2713.0306.3185s.0536.085.0997.1126 .11206.042.19786.042c.0643,0 .14906-.01.25415-.023z"/>
   <path d="m146.81438,1020.3413 .59839.074c-.0944.3496-.26918.6209-.5244.8139s-.58123.2895-.97801.2895c-.49974,0-.89598-.1538-1.18874-.4616s-.43915-.7394-.43915-1.2949c0-.5748.14799-1.0209.44397-1.3384s.67989-.4761 1.15174-.4761c.45684,0 .83003.1555 1.11957.4665s.43432.7485.43432,1.3126c0,.034-.001.086-.003.1544h-2.54798c.0214.3753.12761.6627.31849.8622s.42896.2992.71421.2992c.21233,0 .39357-.056.5437-.1673s.26917-.2895.35711-.534zm-1.90134-.9362h1.90777c-.0257-.2874-.0987-.503-.21877-.6467-.18445-.223-.42359-.3346-.71742-.3346-.26596,0-.48955.089-.67078.2671s-.2815.416-.3008.7142z"/>
   <path d="m148.14306,1021.4415v-3.4166h.52118v.4858c.25094-.3753.6134-.563 1.0874-.563 .20589,0 .39517.037.56783.111s.30187.171.38766.2911 .14584.2628.18016.4279c.0214.1073.0322.2949.0322.563v2.1008h-.57909v-2.0783c-1e-005-.2359-.0225-.4123-.0676-.5292s-.12494-.2102-.23968-.2799-.24933-.1045-.40375-.1045c-.24665,0-.45952.078-.63861.2348s-.26863.4536-.26863.8912v1.8659z"/>
   <path d="m151.59 1020v-0.5823h1.7791v0.5823z"/>
   <path d="m154.08 1021.4v-4.7163h0.64022l2.4772 3.7029v-3.7029h0.5984v4.7163h-0.64022l-2.4772-3.7061v3.7061z"/>
   <path d="m158.76611,1021.4415v-3.4166h.52118v.518c.13297-.2424.25576-.4022.36836-.4794s.23646-.1158.37158-.1158c.19517,0 .39356.062.59517.1866l-.19946.5373c-.14156-.084-.28311-.1255-.42466-.1255-.12655,0-.24022.038-.34102.1142s-.17266.1818-.21555.3169c-.0643.2059-.0965.4311-.0965.6756v1.7887z"/>
   <path d="m161.14 1021.4v-0.6595h0.65951v0.6595z"/>
  </g>
  <g transform="scale(.9962 1.0038)" font-family="Arial" font-size="12.292">
   <path d="m132.93051,1025.4633v-1.0384h5.69576v.8403c-.56018.5962-1.11535,1.3884-1.66552,2.3767s-.9753,2.0047-1.27539,3.049c-.21607.7362-.35411,1.5424-.41413,2.4187h-1.11034c.012-.6922.14804-1.5285.40812-2.5088s.6332-1.9255 1.11935-2.8358 1.00331-1.6775 1.55148-2.3017z"/>
   <path d="m143.76986,1033.1096h-1.08034v-6.8841c-.26008.2481-.60119.4962-1.02331.7442s-.80125.4342-1.13735.5582v-1.0443c.60418-.2841 1.13234-.6282 1.58449-1.0323s.77223-.7963.96029-1.1764h.69622z"/>
   <path d="m152.22047,1032.0713v1.0383h-5.8158c-.008-.2601.034-.5101.12604-.7502 .14805-.3961.38512-.7863.71122-1.1704s.79724-.8282 1.41344-1.3324c.95629-.7842 1.60249-1.4054 1.9386-1.8636s.50415-.8912.50415-1.2994c0-.4281-.15305-.7892-.45914-1.0833s-.70522-.4411-1.19737-.4411c-.52016,0-.93629.156-1.24839.4681s-.47014.7442-.47414,1.2964l-1.11035-.114c.076-.8283.36212-1.4595.85827-1.8936s1.16236-.6512 1.99862-.6512 1.51246.2341 2.00462.7022 .73822,1.0483.73823,1.7405c-1e-005,.3522-.072.6983-.21607,1.0384s-.38313.6982-.71722,1.0743-.88928.8923-1.66552,1.5485c-.6482.5441-1.06433.9133-1.24838,1.1073s-.33611.3891-.45614.5852z"/>
   <path d="m157.45409,1033.1096h-1.08034v-6.8841c-.26008.2481-.60119.4962-1.02331.7442s-.80125.4342-1.13735.5582v-1.0443c.60418-.2841 1.13234-.6282 1.58449-1.0323s.77223-.7963.96029-1.1764h.69622z"/>
   <path d="m161.88946,1028.3381c-.44814-.164-.78025-.3981-.99631-.7022s-.3241-.6682-.3241-1.0923c0-.6402.23007-1.1784.69021-1.6145s1.07233-.6542 1.83657-.6542c.76823,0 1.38642.2231 1.85457.6692s.70221.9893.70222,1.6295c-1e-005,.4081-.10704.7632-.3211,1.0653s-.53917.5352-.9753.6992c.54016.1761.95129.4602 1.23338.8523s.42312.8603.42313,1.4044c-1e-005,.7523-.26609,1.3845-.79825,1.8966s-1.23238.7683-2.10064.7683-1.56849-.2571-2.10065-.7713-.79825-1.1553-.79825-1.9236c0-.5721.14504-1.0513.43513-1.4374s.70322-.6492 1.23939-.7893zm-.21607-1.8305c0,.4161.13404.7562.40212,1.0203s.61619.3961 1.04433.3961c.41612,0 .75723-.131 1.02331-.3931s.39912-.5832.39913-.9633c-1e-005-.3961-.13705-.7292-.41113-.9993s-.61519-.4051-1.02332-.4051-.75423.132-1.02631.3961-.40813.5802-.40813.9483zm-.34811,4.0632c0,.3081.073.6062.21907.8943s.36311.5112.6512.6692 .59818.2371.93029.2371c.51615,0 .94229-.1661 1.27839-.4982s.50415-.7542.50416-1.2664c-1e-005-.5201-.17306-.9502-.51916-1.2904s-.77925-.5101-1.2994-.5101c-.50816,0-.92929.168-1.26339.5041s-.50116.7563-.50116,1.2604z"/>
   <path d="m167.23111,1031.075 1.03832-.096c.088.4881.25607.8422.50415,1.0623s.56618.3301.9543.3301c.3321,0 .62319-.076.87327-.2281s.45513-.3551.61519-.6092 .29408-.5972.40212-1.0293 .16205-.8723.16205-1.3204c0-.048-.002-.12-.006-.2161-.21607.3441-.51116.6232-.88527.8373s-.77925.3211-1.21538.3211c-.72823,0-1.34442-.2641-1.84857-.7922s-.75623-1.2244-.75623-2.0887c0-.8923.26308-1.6105.78924-2.1547s1.18536-.8162 1.97761-.8162c.57217,0 1.09534.154 1.56949.4621s.83425.7473 1.08033,1.3174 .36911,1.3955.36911,2.4758c0,1.1244-.12204,2.0196-.36611,2.6858s-.60719,1.1734-1.08934,1.5215-1.04732.5222-1.69552.5222c-.68821,0-1.25039-.1911-1.68652-.5732s-.69822-.9193-.78624-1.6115zm4.42336-3.8832c0-.6202-.16505-1.1123-.49515-1.4765s-.72723-.5461-1.19137-.5461c-.48015,0-.89828.196-1.25439.5881s-.53416.9003-.53416,1.5245c0,.5602.16905,1.0153.50716,1.3654s.75523.5252 1.25138.5252 .91128-.175 1.23338-.5252 .48315-.8352.48315-1.4554z"/>
   <path d="m175.57369,1028.3381c-.44814-.164-.78024-.3981-.99631-.7022s-.3241-.6682-.3241-1.0923c0-.6402.23007-1.1784.69021-1.6145s1.07233-.6542 1.83657-.6542c.76823,0 1.38642.2231 1.85457.6692s.70221.9893.70222,1.6295c-1e-005,.4081-.10704.7632-.3211,1.0653s-.53917.5352-.9753.6992c.54016.1761.95129.4602 1.23338.8523s.42313.8603.42313,1.4044c0,.7523-.26609,1.3845-.79824,1.8966s-1.23239.7683-2.10065.7683-1.56849-.2571-2.10065-.7713-.79825-1.1553-.79825-1.9236c0-.5721.14504-1.0513.43513-1.4374s.70322-.6492 1.23939-.7893zm-.21607-1.8305c0,.4161.13404.7562.40213,1.0203s.61618.3961 1.04432.3961c.41612,0 .75723-.131 1.02331-.3931s.39912-.5832.39913-.9633c-1e-005-.3961-.13705-.7292-.41113-.9993s-.61519-.4051-1.02332-.4051-.75423.132-1.02631.3961-.40813.5802-.40813.9483zm-.34811,4.0632c0,.3081.073.6062.21907.8943s.36311.5112.6512.6692 .59818.2371.93029.2371c.51616,0 .94229-.1661 1.27839-.4982s.50416-.7542.50416-1.2664c0-.5201-.17306-.9502-.51916-1.2904s-.77924-.5101-1.2994-.5101c-.50816,0-.92929.168-1.26339.5041s-.50116.7563-.50116,1.2604z"/>
   <path d="m180.75929,1030.7869 1.08033-.144c.12404.6121.3351,1.0533.6332,1.3234s.6612.4051 1.08934.4051c.50815,0 .93728-.1761 1.28739-.5282s.52516-.7882.52517-1.3084c-1e-005-.4961-.16206-.9053-.48615-1.2274s-.73624-.4831-1.23639-.4831c-.20406,0-.45814.04-.76223.12l.12003-.9483c.072.01.13004.012.17406.012 .46014,0 .87426-.12 1.24238-.3601s.55217-.6102.55217-1.1103c0-.3961-.13404-.7242-.40212-.9843s-.61419-.3901-1.03832-.3901-.77024.132-1.05033.3961-.46014.6602-.54016,1.1884l-1.08034-.1921c.13204-.7242.43214-1.2854.90028-1.6835s1.05032-.5972 1.74654-.5972c.48015,0 .92228.103 1.32641.3091s.71322.4871.92729.8432 .32109.7343.3211,1.1344c-1e-005,.3801-.10204.7262-.3061,1.0383s-.50616.5602-.90628.7442c.52016.1201.92428.3692 1.21238.7473s.43212.8512.43213,1.4194c-1e-005,.7683-.28009,1.4195-.84026,1.9536s-1.2684.8013-2.12466.8013c-.77224,0-1.41344-.2301-1.92359-.6902s-.80125-1.0564-.87327-1.7886z"/>
   <path d="m193.20113,1026.4656-1.07433.084c-.096-.4241-.23208-.7322-.40812-.9243-.2921-.3081-.65221-.4621-1.08034-.4621-.34411,0-.6462.096-.90628.2881-.34011.248-.60819.6101-.80425,1.0863s-.29809,1.1544-.30609,2.0346c.26008-.3961.57817-.6902.95429-.8823s.77024-.288 1.18237-.288c.72022,0 1.33341.265 1.83957.7952s.75923,1.2154.75923,2.0556c0,.5522-.11904,1.0654-.35711,1.5395s-.56518.8373-.9813,1.0893-.88828.3782-1.41644.3782c-.90028,0-1.63451-.3311-2.20268-.9933s-.85226-1.7536-.85226-3.2741c0-1.7005.31409-2.9369.94229-3.7091 .54816-.6722 1.28639-1.0083 2.21468-1.0083 .69221,0 1.25939.1941 1.70153.5822s.70721.9243.79524,1.6085zm-4.41136,3.7931c0,.3722.079.7283.23707,1.0684s.37912.5992.66321.7772 .58217.2671.89427.2671c.45614,0 .84826-.1841 1.17637-.5522s.49215-.8682.49215-1.5004c0-.6082-.16205-1.0874-.48615-1.4375s-.73223-.5251-1.22438-.5251-.90228.175-1.24238.5251-.51016.8093-.51016,1.3774z"/>
   <path d="m194.43751,1030.8049 1.13435-.096c.084.5521.27909.9673.58519,1.2454s.6752.4171 1.10734.4171c.52015,0 .96029-.1961 1.32041-.5882s.54016-.9123.54016-1.5605c0-.6162-.17306-1.1023-.51916-1.4584s-.79925-.5342-1.35942-.5342c-.34811,0-.6622.079-.94229.2371s-.50016.3631-.6602.6152l-1.01432-.1321 .85227-4.5194h4.37535v1.0324h-3.51109l-.47414,2.3647c.52816-.3681 1.08233-.5522 1.66251-.5522 .76823,0 1.41643.2661 1.9446.7983s.79224,1.2163.79225,2.0526c-1e-005,.7962-.23208,1.4845-.69622,2.0646-.56418.7123-1.33441,1.0684-2.31071,1.0684-.80025,0-1.45345-.2241-1.95961-.6722s-.79524-1.0424-.86727-1.7826z"/>
   <path d="m205.34889,1033.1096h-1.08034v-6.8841c-.26008.2481-.60119.4962-1.02331.7442s-.80125.4342-1.13736.5582v-1.0443c.60419-.2841 1.13235-.6282 1.58449-1.0323s.77224-.7963.9603-1.1764h.69622z"/>
   <path d="m208.19377,1025.4633v-1.0384h5.69576v.8403c-.56018.5962-1.11535,1.3884-1.66552,2.3767s-.9753,2.0047-1.27539,3.049c-.21607.7362-.35411,1.5424-.41413,2.4187h-1.11034c.012-.6922.14804-1.5285.40812-2.5088s.6332-1.9255 1.11935-2.8358 1.00331-1.6775 1.55148-2.3017z"/>
   <path d="m216.62638,1028.3381c-.44814-.164-.78025-.3981-.99631-.7022s-.3241-.6682-.3241-1.0923c0-.6402.23007-1.1784.69021-1.6145s1.07233-.6542 1.83657-.6542c.76823,0 1.38642.2231 1.85457.6692s.70221.9893.70222,1.6295c-1e-005,.4081-.10704.7632-.3211,1.0653s-.53917.5352-.9753.6992c.54016.1761.95129.4602 1.23338.8523s.42312.8603.42313,1.4044c-1e-005,.7523-.26609,1.3845-.79825,1.8966s-1.23238.7683-2.10065.7683-1.56848-.2571-2.10064-.7713-.79825-1.1553-.79825-1.9236c0-.5721.14504-1.0513.43513-1.4374s.70322-.6492 1.23939-.7893zm-.21607-1.8305c0,.4161.13404.7562.40212,1.0203s.61619.3961 1.04433.3961c.41612,0 .75723-.131 1.02331-.3931s.39912-.5832.39913-.9633c-1e-005-.3961-.13705-.7292-.41113-.9993s-.61519-.4051-1.02332-.4051-.75423.132-1.02631.3961-.40813.5802-.40813.9483zm-.34811,4.0632c0,.3081.073.6062.21907.8943s.36311.5112.6512.6692 .59818.2371.93029.2371c.51615,0 .94229-.1661 1.27839-.4982s.50415-.7542.50416-1.2664c-1e-005-.5201-.17306-.9502-.51916-1.2904s-.77925-.5101-1.2994-.5101c-.50816,0-.92929.168-1.26339.5041s-.50116.7563-.50116,1.2604z"/>
  </g>
  <g transform="matrix(2.5045 0 0 2.5237 -608.27 163.66)">
   <path d="m258.61 308.7h12.66a2.1699 2.1699 0 0 1 2.1699 2.1699v10.658a2.1699 2.1699 0 0 1 -2.1699 2.1699h-12.66a2.1699 2.1699 0 0 1 -2.1699 -2.1699v-10.658a2.1699 2.1699 0 0 1 2.1699 -2.1699" fill="#fc0"/>
   <path d="m261.73 308.72 0.0312 14.969h6.3125v-11.367h5.2812v-1.8828c-0.20168-0.99058-1.0731-1.7188-2.125-1.7188h-9.5 5e-5z" fill="none" stroke="#000" stroke-width=".2"/>
   <path d="m268.07 312.32h5.269v3.7853h-5.269z" fill="none" stroke="#000" stroke-width=".21471"/>
   <path d="m268.07 316.11h5.269v3.7853h-5.269z" fill="none" stroke="#000" stroke-width=".21471"/>
   <path d="m268.07 319.9v3.7812h3.1875c1.0169 0 1.8562-0.68386 2.0938-1.625v-2.1562h-5.2812z" fill="none" stroke="#000" stroke-width=".215"/>
   <path d="m256.45 312.52h5.2745v3.5908h-5.2745z" fill="none" stroke="#000" stroke-width=".20923"/>
   <path d="m256.46 316.11h5.269v3.7853h-5.269z" fill="none" stroke="#000" stroke-width=".21471"/>
   <path d="m261.75 319.9v3.7812h-3.1875c-1.0169 0-1.8562-0.68386-2.0938-1.625v-2.1562h5.2812z" fill="none" stroke="#000" stroke-width=".215"/>
   <path d="m261.74 312.51v-3.7812h-3.1875c-1.0169 0-1.8562 0.68386-2.0938 1.625v2.1562h5.2812z" fill="none" stroke="#000" stroke-width=".215"/>
  </g>
  <path class="fil1" d="m256.39 1035.5c3.5568-3.2723 5.7912-7.9992 5.7912-13.256s-2.2344-9.9837-5.7912-13.256c-3.1265-2.8762-7.2748-4.6289-11.827-4.6289-9.7297-1e-4 -17.618 8.0072-17.618 17.885s7.888 17.884 17.618 17.884c4.5518 0 8.7001-1.7523 11.827-4.6284z" fill="#00a3de"/>
  <path class="fil2" d="m268.21295,1004.3261c-4.55183,0-8.70011,1.7528-11.82666,4.629-.63697.5861-1.23159,1.2195-1.77871,1.8935h3.55644c.48673.5999.93589,1.2322 1.34355,1.8938l-6.24311-.0001c-.37437.6081-.71396,1.24-1.01554,1.894l8.27325-.0001c.28291.6129.53338,1.2448.74725,1.8936l-9.7666-.0001c-.20341.6167-.37458,1.2488-.51164,1.8936h10.79004c.25911,1.2211.39624,2.4879.39624,3.7876 0,1.9856-.31916,3.896-.90804,5.6806l-9.7666-.0001c.21387.6487.46309,1.2811.7461,1.8939h8.27325c-.30176.6536-.6403,1.2859-1.0146,1.8939h-6.24311c.40732.6613.85648,1.2938 1.34286,1.8934h3.5567c-.54695.6741-1.14073,1.3078-1.77773,1.894 3.12655,2.876 7.27483,4.6284 11.82654,4.6284 9.72987,0 17.61778-8.0072 17.61778-17.8841s-7.88799-17.8847-17.61766-17.8848z" fill="#d81e04"/>
  <path class="fil0" transform="matrix(.89225 0 0 .89908 162.68 888.71)" d="m88.303 145.69-3.3628 7.753h-2.2407l-0.4095-7.708-1.4653 7.708h-2.2305l1.9061-10.085h3.8346l0.203 6.244 2.7036-6.244h3.9958l-1.9373 10.085h-2.4574z" fill="#fff"/>
  <path class="fil0" d="m261.19768,1026.5738c-.60012.1674-1.06917.2395-1.57562.2395-1.1221,0-1.73435-.5711-1.73435-1.6194 8e-005-.2073.0226-.4283.0648-.6615l.13308-.7215 .10253-.5836 1.01636-5.6306h2.18058l-.31595,1.6933h1.11897l-.30095,1.7928h-1.12353l-.57781,3.0763c-.0259.1351-.0377.2366-.0377.3057 0,.3805.22682.5465.74851.5465 .24967,0 .44312-.023.59114-.069l-.29017,1.6316z" fill="#fff"/>
  <path class="fil0" d="m274.36407,1019.3515c-.18352-.073-.227-.073-.24813-.08l-.18885-.043c-.0662-.012-.14046-.019-.22067-.019-.72003,0-1.23853.3257-1.90996,1.1974l.19357-1.1174h-1.98562l-1.33668,7.3747h2.19432c.78473-4.5101 1.12138-5.3001 2.17398-5.3001 .0789-.0001.1708.01.27679.019l.25669.053 .79464-2.0854z" fill="#fff"/>
  <path class="fil0" d="m252.32348,1021.6208c0,.9316.51682,1.5735 1.68904,2.0554 .89824.37 1.03716.4789 1.03716.8136 0,.459-.39599.6661-1.27307.6661-.66249-.0001-1.27789-.09-1.98857-.2915l-.3039,1.701 .0984.017 .40659.075c.13042.023.32382.045.57945.065 .52757.041.93589.061 1.22337.061 2.34074,0 3.42205-.7783 3.42205-2.4606 0-1.0118-.45201-1.6057-1.56366-2.0524-.93009-.3732-1.03735-.456-1.03735-.8001 .0001-.3973.36886-.6017 1.0857-.6017 .43552,0 1.02986.042 1.59401.1107l.31586-1.7071c-.57442-.079-1.44552-.1444-1.95199-.1444-2.48153,0-3.34069,1.133-3.3329,2.4933z" fill="#fff"/>
  <path class="fil0" d="m279.51878,1026.6646h-1.82217l.0424-.7644c-.55497.6049-1.29456.8917-2.30004.8917-1.18838,0-2.00364-.821-2.00364-2.0139 0-1.7962 1.4167-2.8432 3.85169-2.8432 .24963-.0001.56676.021.89348.057 .0679-.2425.0865-.3471.0865-.479 0-.4882-.38252-.6707-1.40638-.6707-.6261,0-1.33375.08-1.82225.2056l-.30389.078-.19684.048 .304-1.658c1.09337-.2839 1.81475-.3916 2.62519-.3916 1.88435,0 2.88054.7492 2.88054,2.1631 0,.3638-.0332.6401-.17819,1.4612l-.45835,2.616-.0773.4697-.0559.3747-.0373.2561-.0216.1998zm-1.59972-3.2854c-.22994-.024-.3313-.031-.49002-.031-1.24283-.0001-1.87213.3776-1.87213,1.1222 0,.459.3071.7522.78659.7522 .89369-.0001 1.53763-.7536 1.57556-1.8439z" fill="#fff"/>
  <path class="fil0" d="m267.88926,1026.5055c-.75127.2023-1.47856.3007-2.24696.2991-2.4512,0-3.72893-1.1344-3.72893-3.3035 0-2.5314 1.62545-4.3951 3.83207-4.3951 1.80522,0 2.95739,1.0439 2.95739,2.6804 9e-005,.5436-.0785,1.0732-.26921,1.8206h-4.35946c-.0164.1138-.0209.164-.0209.2317 0,.8551.65008,1.2909 1.92363,1.2909 .7832,0 1.49101-.1438 2.27693-.4664l-.3644,1.8423zm-1.16789-4.3875c.0102-.1535.0184-.2793.0184-.3763 8e-005-.5987-.38439-.9501-1.03724-.9501-.6975-.0001-1.19643.4713-1.39898,1.3218l2.41799.01z" fill="#fff"/>
  <path class="fil0" d="m251.57439,1023.321c-.32798,2.453-2.01558,3.5413-4.25901,3.5413-2.48073,0-3.48308-1.528-3.48308-3.3993 0-2.6136 1.6969-4.3844 4.3178-4.3844 2.27464,0 3.48264,1.4564 3.48264,3.3278 .0001.4553-.00049.4859-.0583.9146zm-2.25803-.9435c0-.7712-.30844-1.4996-1.20766-1.4996-1.11826,0-1.81217,1.3427-1.81217,2.5279 .0001.9997.47538,1.6714 1.25933,1.657 .47539,0 1.48864-.6573 1.6892-1.805 .0469-.2678.0714-.5615.0714-.8803z" fill="#fff"/>
  <g fill="#fff" font-family="Xirod" font-size="35.637">
   <path d="m54.173 889.97-18.673 29.186-18.674-29.186h7.7336l9.4084 15.787c0.28492 0.47563 0.55807 0.96285 0.81947 1.4617s0.48702 1.0096 0.677 1.5324c0.45095-1.0216 0.96173-2.0076 1.5324-2.9581l9.4432-15.823z"/>
  </g>
 </g>
</svg>
